<svg xmlns="http://www.w3.org/2000/svg" viewBox="0 0 500 500"><g id="freepik--background-simple--inject-2"><path d="M398,143.12c-.46-19.63-8.22-38.68-19.92-54.45-11.46-15.45-27.1-28.23-45.44-34A74.85,74.85,0,0,0,247.1,85.55a74.75,74.75,0,0,0-77.21-42.76C150.8,45.16,133.12,54.91,119.06,68c-14.35,13.4-25.43,30.73-29.42,50-5,24.08-2.72,51.14,8,73.27,11.32,23.38,31.22,43.24,52.15,58.6,35.21,25.83,81.7,58.39,81.7,58.39S275.76,281,315.05,262c23.37-11.33,46.53-27.27,61.87-48.22C391.45,193.91,398.58,167.7,398,143.12Z" style="fill:#f5f5f5"></path></g><g id="freepik--character-2--inject-2"><path d="M283.44,158.7l-8.3,19.88h0s-7.47,13.66-10.71,25.24c-1.37,4.88-2.75,10.08,2.83,13s8.37,2.35,8.86,2.35h.12a7.49,7.49,0,0,0,7.35-5.73L295,166.72Z" style="fill:#ffbe9d"></path><path d="M329.85,153.73c.31-3.59,2.46-7.22,5.9-8.31l3.95,2.27a9.52,9.52,0,0,1,4.76,11.55c5.16,2.94,6.93,10.54,3.61,15.45,2.56,1.19,3.66,4.32,3.61,7.15s-.95,5.56-1.2,8.38c-.2,2.17,0,4.38-.4,6.52s-1.56,4.33-3.59,5.14a5.82,5.82,0,0,1-6.21-1.77,12.06,12.06,0,0,1-2.62-6.25c-1.07-6.53.32-13.34-1.32-19.74-.9-3.48-2.65-6.68-4.12-10S329.54,157.32,329.85,153.73Z" style="fill:#263238"></path><path d="M331.75,153.27a12.59,12.59,0,0,0,10.52-19.37,3.25,3.25,0,0,0-1.44-1.38c-1.32-.53-2.7.55-3.73,1.54l-7.38,7.2" style="fill:#263238"></path><path d="M331.54,144c5.55-2.62,9.91-8.84,11.52-14.75s-.24-17.91-1.84-23.83c-2-7.21-4.94,2.07-7.39,2.83a4.78,4.78,0,0,0-2.93,3.29,14.51,14.51,0,0,0-.33,4.56q.48,14,1,27.9" style="fill:#263238"></path><path d="M317.36,85.24c-9.27-5-16.71-2-20.33.79s-5.8,7.14-7.13,11.54-1.91,9-3,13.45a54.46,54.46,0,0,0-1.43,7.81c-.53,3.82-.36,10.65,1.6,14s3.9,6,7,8.09c1.11.73,2.43,1.49,3.71,1.09a4.45,4.45,0,0,0,2.1-1.93,178.77,178.77,0,0,0,23.45-46.86" style="fill:#263238"></path><path d="M327.69,96l-16.07-6.48-4.2.47c-9.46,0-16,10.39-16.13,18-.11,8.51.09,18.91,1.41,25.19,2.66,12.63,12.5,13.76,12.5,13.76s-.12,3.45-.22,7.68a13.37,13.37,0,0,0,13.64,13.68h0A13.36,13.36,0,0,0,331.72,155l.2-54.7A4.48,4.48,0,0,0,327.69,96Z" style="fill:#ffbe9d"></path><path d="M293.85,117.63c.21.2,1.4-.78,3.16-.86s3.08.73,3.26.5-.13-.47-.71-.85a4.5,4.5,0,0,0-2.63-.67,4.31,4.31,0,0,0-2.51,1C293.9,117.14,293.74,117.53,293.85,117.63Z" style="fill:#263238"></path><path d="M305.37,126.1a11.34,11.34,0,0,0-2.88-.37c-.45,0-.88-.09-1-.4a2.29,2.29,0,0,1,.23-1.34l1.16-3.48c1.6-5,2.73-9,2.53-9.09s-1.66,3.91-3.26,8.86c-.38,1.22-.75,2.39-1.09,3.5a2.58,2.58,0,0,0-.15,1.77,1.13,1.13,0,0,0,.77.62,2.72,2.72,0,0,0,.77.07A11.29,11.29,0,0,0,305.37,126.1Z" style="fill:#263238"></path><path d="M305.2,147a32.47,32.47,0,0,0,16.82-5.4s-4.1,9-16.9,8.49Z" style="fill:#eb996e"></path><path d="M306.49,129.9a3.24,3.24,0,0,1,2.83-1.5,2.59,2.59,0,0,1,2.07,1,2.23,2.23,0,0,1,.12,2.38,2.3,2.3,0,0,1-2.4.95,6,6,0,0,1-2.32-1.27,1.76,1.76,0,0,1-.51-.54A1.38,1.38,0,0,1,306.49,129.9Z" style="fill:#eb996e"></path><path d="M310.6,127.05c-.28,0-.19,1.91-1.76,3.34s-3.6,1.33-3.6,1.6c0,.12.47.35,1.33.33a4.77,4.77,0,0,0,3-1.23,4.13,4.13,0,0,0,1.36-2.79C311,127.5,310.73,127,310.6,127.05Z" style="fill:#263238"></path><path d="M294.9,107.44c.33.38,1.51-.09,3-.19s2.7.14,3-.29c.12-.21-.1-.6-.65-.95a4.28,4.28,0,0,0-4.79.39C294.9,106.83,294.75,107.25,294.9,107.44Z" style="fill:#263238"></path><path d="M317.13,116.83c-.2.22-1.45-.68-3.21-.66s-3,.93-3.23.71.11-.48.66-.9a4.54,4.54,0,0,1,2.58-.83,4.32,4.32,0,0,1,2.56.79C317,116.35,317.23,116.73,317.13,116.83Z" style="fill:#263238"></path><path d="M317.32,106.57c-.31.4-1.52,0-3,0s-2.69.3-3-.11c-.12-.2.07-.61.6-1a4.21,4.21,0,0,1,2.41-.69,4.09,4.09,0,0,1,2.39.78C317.28,106,317.45,106.37,317.32,106.57Z" style="fill:#263238"></path><path d="M313.48,88.13c4.07-1.64,10.29-1.09,13.78,1.57a18,18,0,0,1,6.47,11.11c.79,4.31-.27,10.7-1.41,14.93-6.59-8.48-13.36-18.26-19.72-26.91Z" style="fill:#263238"></path><path d="M310.36,84.28c-22.31-3.15-20.25,30.59-20.25,30.59h0c2.23-12.43,19.54-25.44,19.54-25.44l3.52-.59Z" style="fill:#263238"></path><path d="M330.54,121.8c-.05-.94.93-3.23,1.86-3.43,2.48-.51,7-.54,7.36,5.81.49,8.68-8.32,7.38-8.35,7.13S330.69,125.08,330.54,121.8Z" style="fill:#ffbe9d"></path><path d="M332.72,127.88s.16.09.42.2a1.54,1.54,0,0,0,1.13-.05c.9-.38,1.59-1.88,1.54-3.45a4.91,4.91,0,0,0-.55-2.14,1.71,1.71,0,0,0-1.2-1.09.77.77,0,0,0-.87.46c-.1.25,0,.42-.08.44s-.19-.14-.14-.5a.89.89,0,0,1,.31-.56,1.13,1.13,0,0,1,.82-.27,2.12,2.12,0,0,1,1.65,1.25,5.13,5.13,0,0,1,.67,2.39c0,1.75-.76,3.44-2,3.87a1.59,1.59,0,0,1-1.39-.15C332.75,128.08,332.69,127.89,332.72,127.88Z" style="fill:#eb996e"></path><path d="M340.74,101.05c-2.22-6-6.71-10.86-11.94-14.46a21.27,21.27,0,0,0-9.31-4c-3.38-.4-7.06.57-9.3,3.13l-.63.64c3.84,8.5,6.54,15.7,11.48,23.62,1.81,2.9,2.59,12.81,3,16.21,1.49,11.61,7.85,16.58,7.85,16.58C345.67,142.83,343,107,340.74,101.05Z" style="fill:#263238"></path><path d="M334,141.46a3.84,3.84,0,0,0,1.7-.55,11.39,11.39,0,0,0,3.46-2.6,11.72,11.72,0,0,0,2.28-3.69,3.89,3.89,0,0,0,.38-1.75c-.18-.07-.87,2.61-3.1,5S333.93,141.28,334,141.46Z" style="fill:#455a64"></path><path d="M335.66,152.75c0,.16,1.85,0,3.6-1.32s2.41-3,2.26-3.08a31.15,31.15,0,0,1-2.63,2.6A31.32,31.32,0,0,1,335.66,152.75Z" style="fill:#455a64"></path><path d="M341.45,163.41c.14.1.94-.78,1.78-2s1.42-2.21,1.28-2.31-.93.78-1.77,2S341.32,163.31,341.45,163.41Z" style="fill:#455a64"></path><path d="M345.93,176.55c.12.11.74-.39,1.37-1.11s1-1.39.91-1.5-.74.38-1.37,1.1S345.8,176.44,345.93,176.55Z" style="fill:#455a64"></path><path d="M343.28,120.69a12.2,12.2,0,0,0-1.64-1c-.54-.28-1.2-.64-1.93-1.1s-1.61-.93-2.5-1.55a60.74,60.74,0,0,1-6.12-4.59A59.62,59.62,0,0,1,319,98.29a60.27,60.27,0,0,1-3.55-6.77c-.48-1-.81-1.91-1.14-2.71s-.58-1.51-.78-2.09a10.83,10.83,0,0,0-.69-1.77,11.64,11.64,0,0,0,.47,1.85,21.7,21.7,0,0,0,.68,2.12c.3.82.61,1.77,1.06,2.77a55.57,55.57,0,0,0,3.47,6.89,62.49,62.49,0,0,0,5.5,7.68,61.76,61.76,0,0,0,6.71,6.66,54.24,54.24,0,0,0,6.25,4.52c.91.61,1.8,1.06,2.56,1.49a22.13,22.13,0,0,0,2,1A10.9,10.9,0,0,0,343.28,120.69Z" style="fill:#455a64"></path><path d="M321.81,110.3a3.71,3.71,0,0,0,.64.82c.44.51,1.11,1.21,2,2a42.7,42.7,0,0,0,16,9.46,27.76,27.76,0,0,0,2.74.75,3.16,3.16,0,0,0,1,.16c0-.09-1.4-.49-3.63-1.32a52.72,52.72,0,0,1-8.36-4,51.87,51.87,0,0,1-7.5-5.41C322.92,111.28,321.89,110.23,321.81,110.3Z" style="fill:#455a64"></path><path d="M289.43,121.38a15.26,15.26,0,0,0-.36-1.9,32.52,32.52,0,0,1-.57-5.21A30.28,30.28,0,0,1,305.05,86.1a32.72,32.72,0,0,1,4.83-2,16,16,0,0,0,1.83-.62,1.47,1.47,0,0,0-.5.07c-.32.07-.8.14-1.4.32a27.69,27.69,0,0,0-4.95,1.87,29.78,29.78,0,0,0-16.79,28.58,27.21,27.21,0,0,0,.77,5.24c.14.61.31,1.07.4,1.38A1.6,1.6,0,0,0,289.43,121.38Z" style="fill:#455a64"></path><path d="M317.3,120.4a9.14,9.14,0,0,0-5.19.93c-.51.26-1.07.73-.92,1.29s.64.64,1.09.75a15.3,15.3,0,0,0,6.14.17c.66-.12,1.43-.37,1.63-1a1.33,1.33,0,0,0-.65-1.44,5.64,5.64,0,0,0-2.1-.68" style="fill:#f9a991"></path><path d="M298.92,121.43a7,7,0,0,0-5.7.15,1.64,1.64,0,0,0-.56.38.66.66,0,0,0-.13.64,1,1,0,0,0,.71.44,10.33,10.33,0,0,0,5.12-.14,1.37,1.37,0,0,0,.91-.58c.16-.34.17-.66-.35-.89" style="fill:#f9a991"></path><polygon points="322.05 391.77 323.58 469.68 304.71 471.7 291.74 392.38 301.93 379.56 322.05 391.77" style="fill:#ffbe9d"></polygon><path d="M302.39,467.85v1.28s-21.46,8.91-21.65,13l42.83-.71V467.15A26.39,26.39,0,0,1,302.39,467.85Z" style="fill:#F65052"></path><path d="M323.63,482.42v-3.21l-41.42.72s-1.69,1.21-1.46,2.55Z" style="fill:#263238"></path><path d="M339.24,389.21,374,404.7l-4.18,18.58s-43.76-13-58.1-15.94-37.5-6.59-44.05-20.47Z" style="fill:#ffbe9d"></path><path d="M366.51,423.62l1.21.32s2.8,22.81,6.65,24.07L385,407l-13.59-3.78A26.13,26.13,0,0,1,366.51,423.62Z" style="fill:#F65052"></path><path d="M385,407l-3.31-.72-9,39.53s.32,2,1.66,2.16Z" style="fill:#263238"></path><path d="M267.87,387.41a5.45,5.45,0,0,0,.37,1,11.11,11.11,0,0,0,1.67,2.49,38.73,38.73,0,0,0,8.58,6.85,40.82,40.82,0,0,0,6.89,3.22,77.47,77.47,0,0,0,8.39,2.35c5.93,1.5,12.44,3.2,19.27,5l35,9.24,10.63,2.71,2.9.69a6.87,6.87,0,0,0,1,.2,6.14,6.14,0,0,0-1-.32l-2.87-.8-10.58-2.89c-8.93-2.43-21.27-5.8-34.94-9.41-6.83-1.81-13.34-3.5-19.28-5a76.34,76.34,0,0,1-8.36-2.27,41,41,0,0,1-6.84-3.12,40.2,40.2,0,0,1-8.62-6.64A13.34,13.34,0,0,1,267.87,387.41Z" style="fill:#eb996e"></path><path d="M305.12,155.42c.32-.75-16.54,13.9-21.05,26.36-3,8.17-8.41,36.14-8.54,36.21l-1.65,16.9,46.91,3.31,1.26-3.31,3.47-9.42,4.83-14.22s11.56-18,13.86-25.7c2.85-9.6-1.88-19.44-1.88-19.44l-10.61-12Z" style="fill:#F65052"></path><path d="M331.72,155s2.6-4.83,1-6.93c-1.27-1.68-23.86.42-28.47,1.4-2.7.57.05,6.61.05,6.61Z" style="fill:#F65052"></path><path d="M304.24,155.5a4.36,4.36,0,0,0,1.08.3c.69.15,1.71.33,3,.5a56.6,56.6,0,0,0,10,.39,55.66,55.66,0,0,0,9.9-1.39c1.24-.3,2.24-.57,2.92-.8a3.65,3.65,0,0,0,1-.4c0-.1-1.55.3-4,.78a71.56,71.56,0,0,1-9.84,1.2,70.72,70.72,0,0,1-9.9-.21C305.82,155.64,304.26,155.4,304.24,155.5Z" style="fill:#263238"></path><g style="opacity:0.30000000000000004"><path d="M318.81,156.3a82.79,82.79,0,0,0,11.64-1.65,30.86,30.86,0,0,1-17.95,3.59c-2.26-.28-4.63-.92-6.13-2.63C309.82,157,315.11,156.62,318.81,156.3Z"></path></g><g style="opacity:0.30000000000000004"><path d="M282,220.2a16.08,16.08,0,0,0,22.43,8.55c4.59-2.38,7.72-6.77,11.29-10.52,4.16-4.37,9.05-8,13.35-12.2s8.11-9.31,9.26-15.23a75,75,0,0,1-21.56,17.43c-11.1,6-23.29,6.79-34.77,12"></path></g><path d="M284.35,129.86s-.6-.94-1.81.79-4,14.33-4,14.33l4.88,13.72,6.33,6.55Z" style="fill:#ffbe9d"></path><path d="M283.44,158.7s-.05-.07-.11-.24-.17-.43-.29-.71c-.25-.68-.6-1.6-1-2.76l-3.63-10v-.1c.52-2.41,1.13-5,1.84-7.85.36-1.4.75-2.84,1.21-4.31a11.62,11.62,0,0,1,.89-2.21,3.63,3.63,0,0,1,.83-.93,1.34,1.34,0,0,1,.68-.27.81.81,0,0,1,.71.37l0,0v.06c.09.63.2,1.3.3,2,1.38,9.21,2.64,17.54,3.55,23.63.43,3,.78,5.43,1,7.17.11.81.19,1.46.26,1.95a5.69,5.69,0,0,1,.06.69,3.22,3.22,0,0,1-.15-.67c-.09-.49-.2-1.14-.35-1.94-.28-1.74-.68-4.17-1.17-7.15-1-6.08-2.24-14.41-3.68-23.61-.1-.68-.21-1.35-.3-2l0,.09c-.14-.21-.44-.2-.72,0a3.21,3.21,0,0,0-.73.82,10.71,10.71,0,0,0-.83,2.09c-.47,1.45-.86,2.89-1.22,4.28-.73,2.8-1.35,5.43-1.9,7.82v-.11c1.43,4.14,2.62,7.57,3.47,10l.93,2.79.23.74A.8.8,0,0,1,283.44,158.7Z" style="fill:#eb996e"></path><path d="M298.55,153.27l.72,44.47,11.91-12.3,24,6.92S305.09,227.29,295,228.24c-2.81.26-7.19-1.77-8.85-2.91a10.13,10.13,0,0,1-4.31-9.31l4.8-51.29Z" style="fill:#ffbe9d"></path><path d="M282.3,210.53l4.5-44.78s-4.38-21.11-4.39-23.62-.4-11.86,1.94-13.07c0,0-.27-4.85,1.63-4.72s2.15,2.75,2.15,2.75.35-2.51,1.38-2.69c1.61-.29,2.24,2,2.24,2h0s1.9-.84,2.93,2.53c0,0,5.16,16.59,5.9,17.75s3.48-1.27,3.48-1.27,3.38-5.21,4-5.35a7.68,7.68,0,0,1,1.83,0s-2.88,8.2-4.54,10.4-5.68,9.46-5.68,9.46l-.4,37.82" style="fill:#ffbe9d"></path><path d="M299.27,197.74s0-.23,0-.68v-2c0-1.76,0-4.32,0-7.59.05-6.58.12-16,.21-27.57v0l0,0c1.66-2.94,3.37-6.07,5.47-9.2a25.68,25.68,0,0,0,2.58-5.07c.74-1.8,1.45-3.67,2.13-5.57l.18.28c-.32,0-.66,0-1,0a4.07,4.07,0,0,0-.5,0,1.6,1.6,0,0,0-.23,0c-.08,0-.06,0-.13.08a13.21,13.21,0,0,0-1.31,1.59c-.84,1.15-1.66,2.37-2.46,3.6l0,0h0a10.29,10.29,0,0,1-1.3,1,3.86,3.86,0,0,1-1.58.65.92.92,0,0,1-.91-.38,5,5,0,0,1-.37-.78c-.2-.51-.38-1-.57-1.55-.72-2.07-1.42-4.19-2.12-6.35s-1.39-4.35-2.09-6.56c-.36-1.09-.67-2.26-1.08-3.31a3.41,3.41,0,0,0-.93-1.35,1.43,1.43,0,0,0-1.41-.3l-.25.09-.07-.25a4.78,4.78,0,0,0-.47-1,2,2,0,0,0-.86-.77,1.15,1.15,0,0,0-.55-.07.58.58,0,0,0-.43.21,4.71,4.71,0,0,0-.86,2.29l-.26,1.5-.2-1.51a3.74,3.74,0,0,0-.82-2c-.44-.5-1.3-.78-1.71-.31a3.69,3.69,0,0,0-.7,2,12.92,12.92,0,0,0-.09,2.24v.14l-.13.07a3.37,3.37,0,0,0-1.17,2,17.14,17.14,0,0,0-.44,2.46,46,46,0,0,0-.25,5c0,.83,0,1.65,0,2.46a14.47,14.47,0,0,0,.16,2.39c.23,1.59.51,3.16.79,4.71,1.13,6.18,2.31,12,3.42,17.47v.06c-1.39,13.47-2.55,24.66-3.35,32.5-.42,3.89-.74,7-1,9.06-.12,1-.21,1.83-.27,2.39s-.11.81-.11.81,0-.28.05-.82l.21-2.39.86-9.07c.77-7.85,1.86-19,3.18-32.52v.06c-1.13-5.44-2.33-11.29-3.47-17.48-.29-1.54-.57-3.11-.8-4.71a15.53,15.53,0,0,1-.17-2.45c0-.82,0-1.64,0-2.47a47.21,47.21,0,0,1,.25-5,17.22,17.22,0,0,1,.45-2.53,7.44,7.44,0,0,1,.46-1.24,2.46,2.46,0,0,1,.93-1.05l-.12.22a13.9,13.9,0,0,1,.09-2.32,6.64,6.64,0,0,1,.24-1.16,2.47,2.47,0,0,1,.59-1.1,1.29,1.29,0,0,1,1.28-.33,2.07,2.07,0,0,1,1.1.65,4.06,4.06,0,0,1,.94,2.26h-.46a5,5,0,0,1,1-2.56,1.1,1.1,0,0,1,.72-.35,1.75,1.75,0,0,1,.75.1,2.38,2.38,0,0,1,1.09,1,4.7,4.7,0,0,1,.53,1.17l-.32-.15a1.89,1.89,0,0,1,1.9.37,4,4,0,0,1,1.06,1.52c.44,1.14.72,2.25,1.09,3.36.71,2.21,1.4,4.4,2.09,6.56s1.39,4.27,2.11,6.34c.19.52.36,1,.57,1.53a5.07,5.07,0,0,0,.31.7.49.49,0,0,0,.51.18,3.46,3.46,0,0,0,1.37-.58,11.14,11.14,0,0,0,1.24-.93l0,.05c.82-1.24,1.64-2.45,2.48-3.62a12.61,12.61,0,0,1,1.39-1.66.71.71,0,0,1,.32-.17l.27,0,.54,0c.35,0,.69,0,1,0l.28,0-.1.26c-.68,1.92-1.39,3.78-2.15,5.59-.37.91-.76,1.8-1.18,2.66a14.51,14.51,0,0,1-1.45,2.48c-2.08,3.09-3.81,6.23-5.48,9.15l0-.09c-.16,11.54-.29,21-.38,27.57-.05,3.27-.1,5.83-.13,7.59,0,.86,0,1.52,0,2S299.27,197.74,299.27,197.74Z" style="fill:#eb996e"></path><path d="M335.13,162.61c-7.92-2.87-12.94.85-19.66,9.38s-9.36,14.51-9.36,14.51L330,201.91s15-20.37,16-24.32S344.07,165.83,335.13,162.61Z" style="fill:#F65052"></path><path d="M294.84,143.67a10.76,10.76,0,0,1-1-2.4,43,43,0,0,1-1.47-6.05,53.5,53.5,0,0,1-.67-6.2,12,12,0,0,1,0-2.58,16.45,16.45,0,0,1,.32,2.56c.16,1.58.4,3.75.8,6.14s.91,4.51,1.33,6A21.91,21.91,0,0,1,294.84,143.67Z" style="fill:#eb996e"></path><path d="M290.41,144a12.45,12.45,0,0,1-.61-2.39c-.32-1.49-.72-3.55-1.05-5.86a57.55,57.55,0,0,1-.58-5.93,11.61,11.61,0,0,1,0-2.47,15.44,15.44,0,0,1,.3,2.45c.14,1.51.37,3.59.71,5.89s.65,4.21.91,5.86A13.13,13.13,0,0,1,290.41,144Z" style="fill:#eb996e"></path><path d="M285.79,143.79a7.36,7.36,0,0,1-.72-2.07,30.75,30.75,0,0,1-.86-5.21,42.54,42.54,0,0,1-.1-5.28,9.07,9.07,0,0,1,.24-2.17c.15,0,0,3.33.32,7.41a51,51,0,0,0,.72,5.18A14.32,14.32,0,0,1,285.79,143.79Z" style="fill:#eb996e"></path><path d="M299.92,208a47.88,47.88,0,0,0,.25-5.34,49.53,49.53,0,0,0-.82-5.28,14.55,14.55,0,0,1,.57,10.62Z" style="fill:#eb996e"></path><path d="M346.18,176.26a7,7,0,0,1-.29,2.28,19.7,19.7,0,0,1-2.88,5.69c-3,4.52-7.4,10.8-12.79,17.82l-.13.17-.17-.12-9.46-6.26c-5.35-3.57-10.43-6.94-14.91-9.92l-.17-.12.11-.17a135.53,135.53,0,0,1,10-14.17c1.34-1.64,2.43-2.91,3.18-3.76l.88-1a2,2,0,0,1,.32-.31,2.29,2.29,0,0,1-.27.36l-.82,1c-.73.88-1.79,2.16-3.09,3.83a148.46,148.46,0,0,0-9.87,14.23l-.07-.29,14.94,9.89,9.45,6.28-.3.05c5.4-7,9.82-13.23,12.9-17.71a20.47,20.47,0,0,0,3-5.57A13.48,13.48,0,0,0,346.18,176.26Z" style="fill:#263238"></path><path d="M322.5,238.41l-.78,6.85s12,22.77,12,35,5.55,109.48,5.55,109.48-65.35,3.72-72.25-2.66l-6.91-6.37-23.38-6.38,36.47-133.08v-7.13Z" style="fill:#263238"></path><path d="M277.8,271.37s0,.09-.07.27l-.13.8c-.11.75-.25,1.77-.44,3.07l-1.58,11.29c-1.36,9.54-3.39,22.69-6,37.14s-5.34,27.49-7.41,36.9c-1,4.66-1.89,8.45-2.48,11.13-.29,1.28-.51,2.29-.67,3-.07.32-.12.58-.16.79a.93.93,0,0,0,0,.27s0-.08.09-.26l.22-.77.78-3c.66-2.61,1.58-6.39,2.67-11.09,2.18-9.38,5-22.41,7.59-36.88s4.58-27.63,5.84-37.19c.63-4.77,1.1-8.64,1.39-11.32.13-1.3.24-2.33.32-3.09,0-.32,0-.58.07-.8A1.48,1.48,0,0,0,277.8,271.37Z" style="fill:#455a64"></path><path d="M324.73,283.55a4.64,4.64,0,0,0-.27.77c-.17.57-.39,1.32-.67,2.24-.58,2-1.4,4.81-2.41,8.24-2.06,6.94-5,16.5-8.69,26.93s-7.28,19.76-10,26.48l-3.25,7.94c-.36.89-.65,1.61-.88,2.16a7.21,7.21,0,0,0-.27.77,3.92,3.92,0,0,0,.38-.72l1-2.12c.84-1.84,2-4.53,3.43-7.87,2.82-6.67,6.51-16,10.17-26.44s6.58-20,8.54-27c1-3.49,1.73-6.33,2.22-8.3l.56-2.26A3.9,3.9,0,0,0,324.73,283.55Z" style="fill:#455a64"></path><path d="M272.59,244.45s.68.06,1.9.12,3,.12,5.2.19c4.39.14,10.47.26,17.18.28s12.8-.09,17.19-.21c2.2-.05,4-.11,5.2-.17s1.9-.09,1.9-.11-.68,0-1.91,0l-5.2.08c-4.4.06-10.47.13-17.18.11s-12.77-.1-17.16-.18l-5.2-.1C273.28,244.43,272.59,244.43,272.59,244.45Z" style="fill:#455a64"></path></g><g id="freepik--character-1--inject-2"><path d="M255,194.39a13,13,0,0,0-3.74-6.87,12.45,12.45,0,0,0-6.74-3.64,10.11,10.11,0,0,0-10.8,5.82,10.13,10.13,0,0,0-3.18-3.07,10.26,10.26,0,0,0-8-1.1,12.51,12.51,0,0,0-6.28,4.38,13,13,0,0,0-2.93,7.25,15.81,15.81,0,0,0,2.52,9.62,22.4,22.4,0,0,0,8.12,6.79c5.21,2.74,12.07,6.16,12.07,6.16s5.36-4.51,10.23-7.83a22.47,22.47,0,0,0,7.29-7.67A15.75,15.75,0,0,0,255,194.39Z" style="fill:#F65052"></path><g style="opacity:0.30000000000000004"><path d="M255,194.39a13,13,0,0,0-3.74-6.87,12.45,12.45,0,0,0-6.74-3.64,10.11,10.11,0,0,0-10.8,5.82,10.13,10.13,0,0,0-3.18-3.07,10.26,10.26,0,0,0-8-1.1,12.51,12.51,0,0,0-6.28,4.38,13,13,0,0,0-2.93,7.25,15.81,15.81,0,0,0,2.52,9.62,22.4,22.4,0,0,0,8.12,6.79c5.21,2.74,12.07,6.16,12.07,6.16s5.36-4.51,10.23-7.83a22.47,22.47,0,0,0,7.29-7.67A15.75,15.75,0,0,0,255,194.39Z"></path></g><path d="M252.05,192.62a13,13,0,0,0-3.74-6.87,12.57,12.57,0,0,0-6.74-3.63,10.14,10.14,0,0,0-10.81,5.82,10.05,10.05,0,0,0-11.15-4.17,12.49,12.49,0,0,0-6.28,4.38,13,13,0,0,0-2.93,7.25,15.82,15.82,0,0,0,2.52,9.62A22.54,22.54,0,0,0,221,211.8c5.22,2.75,11.66,6.26,11.66,6.26s5.77-4.61,10.64-7.93a22.38,22.38,0,0,0,7.3-7.66A15.93,15.93,0,0,0,252.05,192.62Z" style="fill:#F65052"></path><path d="M253.55,204.23a1.23,1.23,0,0,1-.16-.18l-.46-.57-1.68-2.16.05,0c-3.9-.84-10.64-2.3-18.33-3.82-6.07-1.21-11.59-2.22-15.58-2.94l-4.73-.86-1.29-.24a2.12,2.12,0,0,1-.44-.11l.45.05,1.3.18,4.74.76c4,.66,9.54,1.65,15.62,2.85,7.69,1.52,14.42,3,18.3,4h0l0,0,1.62,2.21c.16.22.29.42.41.59S253.56,204.23,253.55,204.23Z" style="fill:#fff"></path><path d="M232.51,197.53a2.87,2.87,0,0,1-.35-.55l-.85-1.55c-.35-.65-.76-1.44-1.16-2.35-.2-.45-.39-.94-.57-1.44-.09-.26-.17-.52-.26-.79a1,1,0,0,1,0-.49.49.49,0,0,1,.43-.37.91.91,0,0,1,.83.48l.43.71a15,15,0,0,1,.68,1.41,12.76,12.76,0,0,1,.76,2.52,8.31,8.31,0,0,1,.14,1.77,2.84,2.84,0,0,1-.06.65,22.7,22.7,0,0,0-.3-2.38,12.92,12.92,0,0,0-.81-2.45,14.49,14.49,0,0,0-.68-1.37c-.27-.42-.53-1.07-.95-1-.19,0-.22.21-.15.47s.17.51.25.76c.17.51.36,1,.55,1.44.38.9.76,1.69,1.09,2.36s.53,1.1.76,1.59A2.7,2.7,0,0,1,232.51,197.53Z" style="fill:#fff"></path><path d="M232.49,197.57a5.7,5.7,0,0,1,1.21-1.79,16,16,0,0,1,1.65-1.65,10,10,0,0,1,1.1-.85,3.43,3.43,0,0,1,.65-.37,1,1,0,0,1,.86-.09.39.39,0,0,1,.1.08l0,0a.24.24,0,0,1,.11.25.73.73,0,0,1,0,.12,1.42,1.42,0,0,1-.11.18,2.48,2.48,0,0,1-.25.3l-.51.52q-.53.48-1,.9c-.67.56-1.3,1-1.84,1.4a6.72,6.72,0,0,1-1.86,1,4.24,4.24,0,0,1,.47-.32c.31-.2.74-.5,1.26-.89s1.13-.87,1.78-1.44c.32-.28.66-.58,1-.9.16-.17.33-.33.49-.51l.23-.27a1,1,0,0,0,.08-.14s0,0,0,0a.1.1,0,0,0,.08,0h0l-.08.05,0,0c-.11-.07-.37,0-.57.1a6,6,0,0,0-.61.34,11.74,11.74,0,0,0-1.08.82,20.73,20.73,0,0,0-1.68,1.58,15.4,15.4,0,0,0-1,1.18C232.63,197.41,232.52,197.58,232.49,197.57Z" style="fill:#fff"></path><path d="M237.91,210.38a4.29,4.29,0,0,1-.72-.47,15.47,15.47,0,0,1-1.81-1.51,7.22,7.22,0,0,1-1.91-2.94,4.87,4.87,0,0,1-.21-2.1,3.07,3.07,0,0,1,.33-1.08,1.57,1.57,0,0,1,.92-.79,1.18,1.18,0,0,1,1.19.31,1,1,0,0,1,.05,1.2,1.19,1.19,0,0,1-1,.57,1.69,1.69,0,0,1-1-.32,3.2,3.2,0,0,1-1.06-1.59,5.5,5.5,0,0,1-.31-1.62,5.58,5.58,0,0,1,.4-2.33,4.38,4.38,0,0,1,.29-.58,1,1,0,0,1,.13-.18,6.79,6.79,0,0,0-.6,3.08,5.68,5.68,0,0,0,.33,1.54,3,3,0,0,0,1,1.45,1.13,1.13,0,0,0,1.61-.18.72.72,0,0,0,0-.84.89.89,0,0,0-.87-.21,1.8,1.8,0,0,0-1,1.62,4.74,4.74,0,0,0,.18,2,7.43,7.43,0,0,0,1.79,2.88C236.93,209.63,238,210.33,237.91,210.38Z" style="fill:#fff"></path><path d="M232.73,196.32a36.75,36.75,0,0,1-1.21,4.58,37.11,37.11,0,0,1-1.5,4.5,34.12,34.12,0,0,1,1.2-4.58A34.19,34.19,0,0,1,232.73,196.32Z" style="fill:#fff"></path><path d="M232.7,218.06a2.3,2.3,0,0,1,.37-.32l1.09-.87,4.08-3.16,6.09-4.62,1.76-1.33a10.94,10.94,0,0,0,1.7-1.5,18.43,18.43,0,0,0,2.81-3.88,17.44,17.44,0,0,0,1.64-9,13.36,13.36,0,0,0-2.86-6.9,10.91,10.91,0,0,0-4-3.15,9.35,9.35,0,0,0-1.3-.48l-.47-.16a2.31,2.31,0,0,1,.48.1,7.56,7.56,0,0,1,1.34.43,10.66,10.66,0,0,1,4.08,3.12,13.48,13.48,0,0,1,3,7,17.49,17.49,0,0,1-1.65,9.18,18.93,18.93,0,0,1-2.86,3.95,11.92,11.92,0,0,1-1.75,1.53l-1.77,1.32-6.13,4.57L234.24,217l-1.13.83Z" style="fill:#263238"></path><path d="M225.56,200s3.76-1.4,5.83-2.1,7-5.26,7-5.26,1.1,2.88,0,5.06a11.74,11.74,0,0,1-3.55,3.75L233,204.7Z" style="fill:#ae7461"></path><path d="M218.91,172.74s25.85-40,27.08-38.79,12.87,11.33,12.87,11.33l-17.55,26.57Z" style="fill:#e0e0e0"></path><path d="M217.48,153.51s4-1,6,4.51a20.15,20.15,0,0,1-1.11-4.39,17.21,17.21,0,0,1,.44-4.27Z" style="fill:#263238"></path><path d="M234.24,227.67s0-.33-.07-.95-.09-1.58-.15-2.72c-.13-2.42-.31-5.83-.54-10a269.84,269.84,0,0,0-3.58-32.87A125.29,125.29,0,0,0,220,149.64a93.52,93.52,0,0,0-4.79-8.8c-.6-1-1.13-1.77-1.45-2.31s-.5-.81-.5-.81.2.26.55.78.89,1.26,1.51,2.27a89.18,89.18,0,0,1,4.88,8.77,123,123,0,0,1,10,31.51A255.26,255.26,0,0,1,233.7,214c.22,4.24.36,7.66.44,10q.06,1.72.09,2.73C234.25,227.34,234.24,227.67,234.24,227.67Z" style="fill:#263238"></path><path d="M208.2,151a6.34,6.34,0,0,0-5.95,2.1c5.75,2.57,12.64,1.82,18.44-.64Z" style="fill:#F65052"></path><g style="opacity:0.30000000000000004"><path d="M208.2,151a6.34,6.34,0,0,0-5.95,2.1c5.75,2.57,12.64,1.82,18.44-.64Z"></path></g><path d="M226.27,135.93a7.62,7.62,0,0,0-1.73,5.37l-2.6,10.22a12.24,12.24,0,0,0,4.33-15.59Z" style="fill:#F65052"></path><g style="opacity:0.30000000000000004"><path d="M226.27,135.93a7.62,7.62,0,0,0-1.73,5.37l-2.6,10.22a12.24,12.24,0,0,0,4.33-15.59Z"></path></g><path d="M202.84,146.9s9.33,9.27,17.07,6,3.51-16.71,3.86-18.64.21-1.5-1.09-1.6S216.84,131,212,137.38C212,137.38,203.44,139.57,202.84,146.9Z" style="fill:#F65052"></path><path d="M205.44,149.11a1.23,1.23,0,0,1-.12-.27,2.11,2.11,0,0,1-.08-.83,3.25,3.25,0,0,1,.47-1.24,3.16,3.16,0,0,1,1.29-1.21,5.21,5.21,0,0,1,2.08-.39,2,2,0,0,0,1-.37,3.44,3.44,0,0,0,.7-.94,3.51,3.51,0,0,1,.84-1.06,2.89,2.89,0,0,1,1.31-.55,2.77,2.77,0,0,1,1.45.18,2.45,2.45,0,0,0,1.31.26c.42-.09.71-.5,1.13-.79a1.63,1.63,0,0,1,1.48-.17,3.55,3.55,0,0,1,1.85,2,10.85,10.85,0,0,1,1.19,4.36,10.69,10.69,0,0,1-.24,3c-.08.35-.16.62-.22.8s-.1.27-.11.26a13.53,13.53,0,0,0,.35-4.09,11,11,0,0,0-1.22-4.24,3.34,3.34,0,0,0-1.69-1.81,1.33,1.33,0,0,0-1.21.13c-.36.24-.66.7-1.23.85a2.68,2.68,0,0,1-1.49-.28,2.51,2.51,0,0,0-3.25,1.28,3.85,3.85,0,0,1-.78,1,2.26,2.26,0,0,1-1.16.41,5.14,5.14,0,0,0-2,.33,3.28,3.28,0,0,0-1.74,2.26A3.12,3.12,0,0,0,205.44,149.11Z" style="fill:#263238"></path><path d="M224,132.72a4.68,4.68,0,0,0-1.63.67,3.38,3.38,0,0,0-1.14,1.48c-.29.65-.14,1.49-.45,2.36a2.64,2.64,0,0,1-.81,1,3.1,3.1,0,0,0-1.1,2.68,4.22,4.22,0,0,0,.54,1.67s-.15-.1-.32-.37a3,3,0,0,1-.44-1.28,3.34,3.34,0,0,1,1.11-2.93,2.46,2.46,0,0,0,.73-.91c.28-.74.15-1.62.47-2.35a3.46,3.46,0,0,1,1.28-1.56,3.06,3.06,0,0,1,1.27-.49A1.26,1.26,0,0,1,224,132.72Z" style="fill:#263238"></path><path d="M218.83,141.63A11.89,11.89,0,0,0,217,140.2a5.26,5.26,0,0,0-2.36-.74,4.28,4.28,0,0,0-2.84.84,4.66,4.66,0,0,0-1,1.19,2.41,2.41,0,0,1-1.19,1c-.49.17-.94.21-1.32.37a2.41,2.41,0,0,0-.92.64,1.76,1.76,0,0,0-.4,1.53,3.47,3.47,0,0,0,.24.57s-.05,0-.13-.11a1.3,1.3,0,0,1-.22-.43,1.79,1.79,0,0,1,.34-1.7,2.61,2.61,0,0,1,1-.74c.42-.19.89-.24,1.32-.4.9-.26,1.16-1.48,2.12-2.19a4.46,4.46,0,0,1,3.05-.88,5.39,5.39,0,0,1,2.46.84,6.74,6.74,0,0,1,1.34,1.11A1.94,1.94,0,0,1,218.83,141.63Z" style="fill:#263238"></path><path d="M220.85,136.45a2.16,2.16,0,0,0-.93-.46,1.44,1.44,0,0,0-1,.22,6.46,6.46,0,0,1-.57.43,1.6,1.6,0,0,1-.79.2,2,2,0,0,0-2,1.27,6.52,6.52,0,0,1-.48,1,3.41,3.41,0,0,1,1-2.09,2.07,2.07,0,0,1,.67-.37,3.55,3.55,0,0,1,.78-.1,1.49,1.49,0,0,0,.66-.15c.19-.11.36-.27.56-.4a1.57,1.57,0,0,1,1.25-.2C220.69,136,220.89,136.45,220.85,136.45Z" style="fill:#263238"></path><g style="opacity:0.30000000000000004"><path d="M220.4,134.5a2.59,2.59,0,0,0-1.82-.28,4.32,4.32,0,0,0-3.05,1.63c-.37.53-.6,1.21-1.18,1.49a3.49,3.49,0,0,1-1.37.15,3.16,3.16,0,0,0-2.11,1c-.56.6-.87,1.43-1.53,1.92a8.61,8.61,0,0,1-1.71.8,4.35,4.35,0,0,0-1.94,1.81,2.29,2.29,0,0,0-.24,1.9,1.19,1.19,0,0,0,1.62.64l0-.07a2.25,2.25,0,0,1,.82-2.61c.75-.49,1.76-.5,2.44-1.08a8.9,8.9,0,0,0,1-1.38,2.93,2.93,0,0,1,1.87-1c.55-.07,1.33.11,1.79-.21a7.08,7.08,0,0,1,.59-1.5c1.11-1.66,1.49-.72,2.29-1.06.45-.19.86-.61,1.33-.69a2,2,0,0,1,1.41.2A1.13,1.13,0,0,0,220.4,134.5Z"></path></g><g style="opacity:0.30000000000000004"><path d="M220.93,151.71c.24-1.22.53-2.43.67-3.67a9,9,0,0,0-.24-3.69,5.07,5.07,0,0,0-2.17-2.93,3.57,3.57,0,0,0-3.56-.11,2.5,2.5,0,0,1-2.62.35,2.6,2.6,0,0,0-2.07.88c-.55.63-.81,1.55-1.57,1.91a4.85,4.85,0,0,1-1,.27,1.13,1.13,0,0,0-.82.59,3.47,3.47,0,0,0,3-1c.35-.35.61-.78.93-1.17a2.3,2.3,0,0,1,1.22-.82c.8-.15,1.59.39,2.4.36,1.1,0,2-1.09,3.1-1a2.69,2.69,0,0,1,1.87,1.62,11.11,11.11,0,0,1,1.36,5"></path></g><path d="M227,166.85a27,27,0,0,0-16.24-6.62,49,49,0,0,0,7.76,5,14.88,14.88,0,0,0,8.48,1.66" style="fill:#263238"></path><path d="M226,164.17a18.77,18.77,0,0,1,6.47-16.45A20.85,20.85,0,0,1,226,164.17" style="fill:#263238"></path><path d="M229.89,180.47A19,19,0,0,1,238.66,165a29,29,0,0,1-8.77,15.43" style="fill:#263238"></path><path d="M246,138.08s3.9,1.17,2.82,7a20.12,20.12,0,0,1,1.31-4.34,17.4,17.4,0,0,1,2.58-3.43Z" style="fill:#263238"></path><path d="M232.15,207.13s0-.3.11-.88l.4-2.51c.36-2.18.9-5.33,1.71-9.19s1.93-8.44,3.48-13.42q1.17-3.75,2.6-7.77l3-8.25a138.23,138.23,0,0,0,4.68-16.29,108.88,108.88,0,0,0,2.1-13.67c.34-3.93.38-7.12.36-9.33,0-1.1-.05-2-.06-2.54s0-.88,0-.88,0,.3.07.88.09,1.44.11,2.54a88.93,88.93,0,0,1-.26,9.35,105,105,0,0,1-2,13.71,133.86,133.86,0,0,1-4.67,16.33c-1,2.83-2,5.59-3,8.25s-1.83,5.27-2.61,7.75c-1.57,5-2.7,9.53-3.54,13.39s-1.41,7-1.81,9.16l-.45,2.5C232.22,206.83,232.15,207.13,232.15,207.13Z" style="fill:#263238"></path><path d="M236.85,124.86s3.21,12.75,11.54,13.93,11.64-12.5,12.93-14,1-1.18-.11-1.93-4.19-4.38-11.58-1.44C249.63,121.44,241.15,118.89,236.85,124.86Z" style="fill:#F65052"></path><path d="M237.94,128.09a1.58,1.58,0,0,1,0-.29,1.84,1.84,0,0,1,.36-.75,3.36,3.36,0,0,1,1-.83,3.15,3.15,0,0,1,1.73-.36,5.22,5.22,0,0,1,2,.74,2,2,0,0,0,1.06.21,3.36,3.36,0,0,0,1.09-.45,3.52,3.52,0,0,1,1.27-.47,2.84,2.84,0,0,1,1.4.21,2.67,2.67,0,0,1,1.15.9,2.48,2.48,0,0,0,1,.9c.4.14.87-.07,1.38-.1a1.64,1.64,0,0,1,1.35.62,3.54,3.54,0,0,1,.57,2.64,10.89,10.89,0,0,1-1.23,4.35,10.48,10.48,0,0,1-1.78,2.48,6.84,6.84,0,0,1-.6.57l-.23.17a13.52,13.52,0,0,0,2.41-3.32,11,11,0,0,0,1.15-4.27,3.32,3.32,0,0,0-.52-2.42,1.36,1.36,0,0,0-1.1-.51,3.8,3.8,0,0,1-1.49.09,2.69,2.69,0,0,1-1.14-1,2.45,2.45,0,0,0-1-.81,2.57,2.57,0,0,0-2.41.23,3.61,3.61,0,0,1-1.19.47,2.12,2.12,0,0,1-1.21-.25,5.14,5.14,0,0,0-1.89-.75,3.33,3.33,0,0,0-2.66,1A3.38,3.38,0,0,0,237.94,128.09Z" style="fill:#263238"></path><path d="M262.26,123.62a4.26,4.26,0,0,0-1.74-.27,3.32,3.32,0,0,0-1.74.68c-.58.41-.89,1.2-1.61,1.79a2.59,2.59,0,0,1-1.22.46,3.19,3.19,0,0,0-1,.37,3.3,3.3,0,0,0-1.28,1.36,4.51,4.51,0,0,0-.4,1.71,1.25,1.25,0,0,1-.08-.49,3.06,3.06,0,0,1,.29-1.32,3.31,3.31,0,0,1,1.33-1.51,3.34,3.34,0,0,1,1.13-.42,2.4,2.4,0,0,0,1.09-.41c.63-.49,1-1.31,1.62-1.77a3.48,3.48,0,0,1,1.9-.67,3.3,3.3,0,0,1,1.34.23A1.13,1.13,0,0,1,262.26,123.62Z" style="fill:#263238"></path><path d="M253.27,128.6a11.61,11.61,0,0,0-.84-2.18,5.29,5.29,0,0,0-1.64-1.85,4.26,4.26,0,0,0-2.86-.75,4.6,4.6,0,0,0-1.49.5,2.41,2.41,0,0,1-1.55.26c-.5-.11-.91-.31-1.32-.37a2.44,2.44,0,0,0-1.12.08,1.75,1.75,0,0,0-1.13,1.1,2.94,2.94,0,0,0-.09.61s0,0,0-.16a1.35,1.35,0,0,1,0-.48,1.84,1.84,0,0,1,1.18-1.28,2.5,2.5,0,0,1,1.23-.12c.45.05.88.25,1.33.34.91.23,1.76-.68,2.95-.79a4.48,4.48,0,0,1,3.07.82,5.42,5.42,0,0,1,1.67,2,6.61,6.61,0,0,1,.57,1.65A1.88,1.88,0,0,1,253.27,128.6Z" style="fill:#263238"></path><path d="M257.67,125.21a2.29,2.29,0,0,0-.56-.88,1.41,1.41,0,0,0-1-.34c-.21,0-.44.07-.71.07a1.74,1.74,0,0,1-.78-.24,2.05,2.05,0,0,0-2.35.07,6.33,6.33,0,0,1-.92.6,2.64,2.64,0,0,1,.8-.78,2.57,2.57,0,0,1,1.13-.51,1.79,1.79,0,0,1,.76,0,3.59,3.59,0,0,1,.72.32,1.48,1.48,0,0,0,.65.2c.21,0,.44,0,.68,0a1.58,1.58,0,0,1,1.17.47C257.78,124.71,257.7,125.23,257.67,125.21Z" style="fill:#263238"></path><g style="opacity:0.30000000000000004"><path d="M258.29,123.31a2.53,2.53,0,0,0-1.41-1.19,4.4,4.4,0,0,0-3.46-.17c-.58.26-1.13.72-1.77.66a3.62,3.62,0,0,1-1.25-.57,3.17,3.17,0,0,0-2.34-.24,13.29,13.29,0,0,1-2.29.87,8.6,8.6,0,0,1-1.88-.21,4.26,4.26,0,0,0-2.59.56,2.23,2.23,0,0,0-1.19,1.5,1.18,1.18,0,0,0,1,1.38l.07,0a2.23,2.23,0,0,1,2-1.81c.9,0,1.77.48,2.65.34a11.07,11.07,0,0,0,1.61-.65,2.86,2.86,0,0,1,2.13.08c.51.23,1.08.78,1.64.74a7.39,7.39,0,0,1,1.28-1c1.81-.85,1.65.15,2.51.28a6.21,6.21,0,0,1,1.5.09,2.09,2.09,0,0,1,1.1.9A1.13,1.13,0,0,0,258.29,123.31Z"></path></g><g style="opacity:0.30000000000000004"><path d="M249.86,138.31c.84-.91,1.71-1.8,2.47-2.79a9,9,0,0,0,1.7-3.29,5.07,5.07,0,0,0-.35-3.63,3.58,3.58,0,0,0-3-1.93,4.21,4.21,0,0,1-.94,0c-.59-.14-1-.68-1.49-1a2.59,2.59,0,0,0-2.23-.32c-.79.26-1.5.92-2.33.84a5.76,5.76,0,0,1-1-.3,1.15,1.15,0,0,0-1,.08,3.47,3.47,0,0,0,3.11.73c.48-.13.93-.36,1.4-.52a2.26,2.26,0,0,1,1.47-.08c.77.28,1.16,1.15,1.87,1.55,1,.53,2.28.1,3.16.76a2.72,2.72,0,0,1,.77,2.36,11.3,11.3,0,0,1-1.41,5"></path></g><path d="M247.22,154.4a26.88,26.88,0,0,0-10.49-14.05,48,48,0,0,0,4.09,8.25,14.85,14.85,0,0,0,6.4,5.8" style="fill:#263238"></path><path d="M247.74,151.59a18.8,18.8,0,0,1,14-10.75,20.83,20.83,0,0,1-14,10.75" style="fill:#263238"></path><path d="M239.53,176.3a19,19,0,0,1,12.64-12.45,29,29,0,0,1-12.64,12.45" style="fill:#263238"></path><path d="M227.57,129.44s4.43-.34,5.6,6a22.54,22.54,0,0,1-.37-4.93,18.94,18.94,0,0,1,1.28-4.5Z" style="fill:#455a64"></path><path d="M232.15,200.87s0-.31.09-.87.2-1.44.34-2.49c.29-2.2.7-5.31,1.21-9.13s1-8.46,1.3-13.59.44-10.79.35-16.72a136.23,136.23,0,0,0-1.29-16.66,109.66,109.66,0,0,0-2.77-13.36c-1-3.74-2.09-6.71-2.86-8.74-.38-1-.72-1.79-.92-2.33s-.31-.82-.31-.82.13.27.36.8.58,1.29,1,2.31a89.4,89.4,0,0,1,3,8.73,108.09,108.09,0,0,1,2.84,13.37,134.55,134.55,0,0,1,1.32,16.7c.09,5.94-.07,11.6-.38,16.73s-.85,9.75-1.37,13.61-1,7-1.31,9.12c-.17,1-.3,1.86-.39,2.48S232.15,200.87,232.15,200.87Z" style="fill:#455a64"></path><path d="M218.07,125a6.88,6.88,0,0,0-6.78,1.13c5.7,3.84,13.23,4.33,19.92,2.79Z" style="fill:#F65052"></path><g style="opacity:0.30000000000000004"><path d="M218.07,125a6.88,6.88,0,0,0-6.78,1.13c5.7,3.84,13.23,4.33,19.92,2.79Z"></path></g><path d="M240.32,112.22c-1.48,1.42-2.85,3.39-2.87,5.44l-4.72,10.48a13.35,13.35,0,0,0,7.59-15.92Z" style="fill:#F65052"></path><g style="opacity:0.30000000000000004"><path d="M240.32,112.22c-1.48,1.42-2.85,3.39-2.87,5.44l-4.72,10.48a13.35,13.35,0,0,0,7.59-15.92Z"></path></g><path d="M213.1,119.58s8.27,11.71,17.2,9.63,6.92-17.28,7.66-19.29.51-1.57-.87-1.91-6-2.81-12.34,3.08C224.75,111.09,215.12,111.83,213.1,119.58Z" style="fill:#F65052"></path><path d="M215.48,122.44a.8.8,0,0,1-.08-.31,2.23,2.23,0,0,1,.08-.91,3.64,3.64,0,0,1,.73-1.24,3.47,3.47,0,0,1,1.61-1,5.77,5.77,0,0,1,2.31,0,2.18,2.18,0,0,0,1.16-.2,3.57,3.57,0,0,0,.94-.89,3.55,3.55,0,0,1,1.1-1,3.07,3.07,0,0,1,1.5-.35,3.14,3.14,0,0,1,1.52.46,2.61,2.61,0,0,0,1.37.53c.47,0,.86-.41,1.36-.64a1.79,1.79,0,0,1,1.61.1,3.87,3.87,0,0,1,1.61,2.45,12,12,0,0,1,.46,4.91,11.81,11.81,0,0,1-.83,3.21c-.16.36-.29.64-.39.82a1.34,1.34,0,0,1-.17.27s.17-.4.45-1.13a13.1,13.1,0,0,0,.72-3.2,12.21,12.21,0,0,0-.51-4.79,3.65,3.65,0,0,0-1.48-2.27,1.48,1.48,0,0,0-1.34-.08c-.44.18-.85.62-1.48.67a2.91,2.91,0,0,1-1.54-.58,2.75,2.75,0,0,0-1.37-.42,2.7,2.7,0,0,0-1.35.3,3.47,3.47,0,0,0-1,.89,3.86,3.86,0,0,1-1,.94,2.34,2.34,0,0,1-1.31.22,5.59,5.59,0,0,0-2.23,0,3.61,3.61,0,0,0-2.29,2.11A3,3,0,0,0,215.48,122.44Z" style="fill:#263238"></path><path d="M238.45,108.34a4.61,4.61,0,0,0-1.89.41,3.66,3.66,0,0,0-1.51,1.37c-.43.65-.43,1.58-.93,2.45a2.86,2.86,0,0,1-1.05,1,3.22,3.22,0,0,0-.92.78,3.64,3.64,0,0,0-.77,1.89,4.61,4.61,0,0,0,.27,1.91,1.4,1.4,0,0,1-.27-.47,3.31,3.31,0,0,1-.22-1.45,3.75,3.75,0,0,1,.76-2.06,3.7,3.7,0,0,1,1-.86,2.64,2.64,0,0,0,1-.85c.44-.75.46-1.72.95-2.44a3.72,3.72,0,0,1,1.66-1.42,3.28,3.28,0,0,1,1.44-.29A1.51,1.51,0,0,1,238.45,108.34Z" style="fill:#263238"></path><path d="M231.26,116.94a11.67,11.67,0,0,0-1.7-1.89,5.75,5.75,0,0,0-2.4-1.25,4.66,4.66,0,0,0-3.21.37,5.17,5.17,0,0,0-1.33,1.09,2.61,2.61,0,0,1-1.46.87c-.55.09-1,0-1.48.14a2.76,2.76,0,0,0-1.12.52,1.9,1.9,0,0,0-.71,1.58,3.2,3.2,0,0,0,.15.65,1.11,1.11,0,0,1-.27-.64,2,2,0,0,1,.69-1.76,2.83,2.83,0,0,1,1.2-.6c.48-.12,1-.08,1.49-.17,1-.12,1.53-1.38,2.69-2a4.89,4.89,0,0,1,3.43-.37,5.88,5.88,0,0,1,2.48,1.36,7.27,7.27,0,0,1,1.23,1.45A2,2,0,0,1,231.26,116.94Z" style="fill:#263238"></path><path d="M234.41,111.76a2.53,2.53,0,0,0-.91-.68,1.59,1.59,0,0,0-1.17,0c-.2.1-.42.25-.69.36a2,2,0,0,1-.88.06,2.23,2.23,0,0,0-2.37,1c-.43.58-.65,1-.69,1a3,3,0,0,1,.51-1.1,2.86,2.86,0,0,1,.95-1,2,2,0,0,1,.77-.27,3.48,3.48,0,0,1,.86,0,1.64,1.64,0,0,0,.74,0c.23-.08.44-.23.68-.33a1.7,1.7,0,0,1,1.37,0C234.31,111.22,234.44,111.77,234.41,111.76Z" style="fill:#263238"></path><g style="opacity:0.30000000000000004"><path d="M234.29,109.59a2.8,2.8,0,0,0-1.9-.65,4.75,4.75,0,0,0-3.59,1.17c-.49.5-.87,1.19-1.54,1.38a4,4,0,0,1-1.5-.1,3.45,3.45,0,0,0-2.46.68c-.71.55-1.2,1.37-2,1.79a9.46,9.46,0,0,1-2,.52,4.79,4.79,0,0,0-2.43,1.58,2.5,2.5,0,0,0-.61,2,1.29,1.29,0,0,0,1.61,1l.05-.07a2.44,2.44,0,0,1,1.37-2.64c.9-.39,2-.21,2.83-.7a10.42,10.42,0,0,0,1.37-1.29,3.16,3.16,0,0,1,2.2-.75c.61,0,1.41.36,2,.11a7.94,7.94,0,0,1,.92-1.5c1.5-1.57,1.73-.49,2.66-.71a7.42,7.42,0,0,1,1.56-.49,2.28,2.28,0,0,1,1.47.48A1.23,1.23,0,0,0,234.29,109.59Z"></path></g><g style="opacity:0.30000000000000004"><path d="M231.61,128.15c.49-1.26,1-2.5,1.42-3.8a10.16,10.16,0,0,0,.44-4,5.59,5.59,0,0,0-1.79-3.55,3.9,3.9,0,0,0-3.79-.79,4.83,4.83,0,0,1-1,.33,5.27,5.27,0,0,1-1.91-.45,2.81,2.81,0,0,0-2.39.56c-.71.57-1.17,1.51-2.05,1.76a6,6,0,0,1-1.13.09,1.26,1.26,0,0,0-1,.48,3.81,3.81,0,0,0,3.46-.48c.44-.32.8-.74,1.22-1.09a2.5,2.5,0,0,1,1.46-.65c.89,0,1.63.72,2.51.84,1.18.17,2.36-.79,3.51-.46a2.94,2.94,0,0,1,1.7,2.09,12.13,12.13,0,0,1,.52,5.61"></path></g><path d="M235.16,147.09a26.92,26.92,0,0,0-14.71-9.54,48.45,48.45,0,0,0,6.69,6.32c2.55,1.86,5.4,3.17,8,3.22" style="fill:#455a64"></path><path d="M234.45,142.5a18.79,18.79,0,0,1,9.44-14.94,20.82,20.82,0,0,1-9.44,14.94" style="fill:#455a64"></path><path d="M235.58,161.26a19,19,0,0,1,11.5-13.51,28.94,28.94,0,0,1-11.5,13.51" style="fill:#455a64"></path><path d="M230.67,256.36a1.62,1.62,0,0,1,0-.39c.06-.32.12-.69.19-1.12.18-1,.4-2.38.64-4.12.5-3.48,1-8.32,1.27-13.68s.59-10.23.92-13.74c.17-1.75.32-3.17.46-4.15.06-.43.11-.8.16-1.12a2.42,2.42,0,0,1,.07-.39,1.74,1.74,0,0,1,0,.4c0,.32-.06.69-.1,1.13-.1,1-.22,2.39-.36,4.15-.27,3.51-.5,8.37-.82,13.73s-.82,10.22-1.37,13.7c-.27,1.75-.52,3.15-.74,4.11q-.14.65-.24,1.11A1.87,1.87,0,0,1,230.67,256.36Z" style="fill:#263238"></path><path d="M236.21,248a1.23,1.23,0,0,1-.05-.33c0-.28,0-.59-.08-.94-.07-.82-.14-2-.2-3.48-.13-2.94-.2-7-.23-11.48s-.07-8.54-.14-11.48c0-1.39-.07-2.55-.1-3.48l0-.94a1,1,0,0,1,0-.33,1.19,1.19,0,0,1,0,.32c0,.28.05.59.08.95.07.82.14,2,.2,3.47.13,2.94.2,7,.23,11.49s.07,8.54.14,11.47c0,1.39.07,2.55.1,3.48l0,1A1.07,1.07,0,0,1,236.21,248Z" style="fill:#263238"></path><path d="M218.91,172.74s13.54,28.87,13.88,29.45L228.05,242l12.22-9.1,1.42-35.64,17.17-52Z" style="fill:#e0e0e0"></path><path d="M241.72,198.26a5.69,5.69,0,0,1-1.26.69c-.79.39-1.9.9-3.13,1.44s-2.36,1-3.19,1.33a6.45,6.45,0,0,1-1.35.47,6.63,6.63,0,0,1,1.27-.67c.8-.38,1.91-.88,3.14-1.42s2.36-1,3.17-1.35A7.27,7.27,0,0,1,241.72,198.26Z" style="fill:#263238"></path><path d="M237.47,200.35a1.33,1.33,0,0,1-.09-.28c0-.18-.1-.45-.17-.8-.14-.7-.32-1.72-.47-3a44.54,44.54,0,0,1-.32-4.47c0-.84,0-1.73,0-2.65,0-.46,0-.92.07-1.4a1.93,1.93,0,0,1,.19-.75.93.93,0,0,1,.7-.47.77.77,0,0,1,.73.43,2.53,2.53,0,0,1,.27.7c.13.46.24.91.34,1.36a19.17,19.17,0,0,1,.13,7.12,16.94,16.94,0,0,1-.76,2.93c-.11.34-.23.59-.3.76a1,1,0,0,1-.13.26s.11-.38.31-1.06a19,19,0,0,0,.66-2.92,20.18,20.18,0,0,0,.16-4.43,20.7,20.7,0,0,0-.37-2.59c-.1-.45-.21-.9-.34-1.34s-.3-1-.67-.91-.6.49-.62.94,0,.93-.07,1.39c0,.91,0,1.79,0,2.63,0,1.67.12,3.18.25,4.44s.27,2.29.37,3A10,10,0,0,1,237.47,200.35Z" style="fill:#263238"></path><path d="M237.43,200.42s-.08,0-.23-.1-.37-.18-.65-.35a15.24,15.24,0,0,1-2.2-1.54,18.67,18.67,0,0,1-2.77-2.87,18.14,18.14,0,0,1-1.33-2c-.2-.36-.41-.72-.59-1.1a4.73,4.73,0,0,1-.27-.6.86.86,0,0,1,.07-.76,1,1,0,0,1,1.36-.06,11.3,11.3,0,0,1,.94.86c.58.57,1.12,1.15,1.61,1.71a29.35,29.35,0,0,1,2.41,3.18,23.39,23.39,0,0,1,1.36,2.32c.15.28.25.5.32.65a.75.75,0,0,1,.09.24,7.52,7.52,0,0,1-.51-.83c-.33-.55-.8-1.33-1.44-2.26a34.14,34.14,0,0,0-2.44-3.11c-.5-.55-1-1.12-1.62-1.68a9.81,9.81,0,0,0-.9-.82.67.67,0,0,0-.93,0c-.18.26,0,.68.23,1s.38.74.58,1.09a17.5,17.5,0,0,0,1.29,1.93,19.07,19.07,0,0,0,2.68,2.88,19.75,19.75,0,0,0,2.13,1.61A8.07,8.07,0,0,1,237.43,200.42Z" style="fill:#263238"></path><path d="M235.85,214.71a2.12,2.12,0,0,1,0-.57c0-.36,0-.89,0-1.55.05-1.31.18-3.12.43-5.1s.55-3.78.81-5.06c.13-.64.25-1.16.34-1.51a2.18,2.18,0,0,1,.17-.55,18.87,18.87,0,0,1-.29,2.1c-.21,1.29-.48,3.08-.72,5.06s-.41,3.77-.52,5.08A15.19,15.19,0,0,1,235.85,214.71Z" style="fill:#263238"></path><path d="M238.17,210.39a42.31,42.31,0,0,1-.56-5.21,47,47,0,0,1-.25-5.24,42.31,42.31,0,0,1,.56,5.21A44.22,44.22,0,0,1,238.17,210.39Z" style="fill:#263238"></path><path d="M240.92,158c.08,0-3,7.08-6.83,15.74s-7,15.64-7.11,15.6,3-7.07,6.83-15.73S240.84,158,240.92,158Z" style="fill:#263238"></path><polygon points="221.35 204.99 211.26 203.52 206.57 221.16 225.61 223.05 221.35 204.99" style="fill:#ae7461"></polygon><path d="M245.23,202.25c-2.13-.39-3.69,1.59-4.65,1.82s-9.12-.65-9.12-.65l-5.9-3.42-4.68,5.11L223.5,223s18.06.46,20.15-.92,3.24-6.58,4.23-8.2.6-3.52.07-5.08S248.76,202.92,245.23,202.25Z" style="fill:#ae7461"></path><path d="M240.71,204.14a47.68,47.68,0,0,1-5.39-.31,43.87,43.87,0,0,1-5.36-.62,47.58,47.58,0,0,1,5.39.31A43.87,43.87,0,0,1,240.71,204.14Z" style="fill:#6f4439"></path><path d="M248,206.92a2.25,2.25,0,0,1-.08,1,5.49,5.49,0,0,1-3,3.71,2,2,0,0,1-1,.27,8.08,8.08,0,0,0,2.68-2A8.36,8.36,0,0,0,248,206.92Z" style="fill:#6f4439"></path><path d="M247.11,215.47c.08,0-.32.78-1.2,1.26a2.23,2.23,0,0,1-1.7.37c0-.09.75-.18,1.55-.64S247,215.41,247.11,215.47Z" style="fill:#6f4439"></path><path d="M190.75,57.47A23.88,23.88,0,0,0,165.68,37l-1.23.08C151.2,38.65,145.13,50.78,147.08,64l4.59,44.17.35,13.16,31.27,7.24-1-25.24s12.66-2.76,12.05-15.55C194,81.59,192.37,68.92,190.75,57.47Z" style="fill:#ae7461"></path><path d="M182.36,103.3a31.09,31.09,0,0,1-17.05-3.9s4.5,9,17.18,7Z" style="fill:#6f4439"></path><path d="M187.61,68.87A1.83,1.83,0,0,1,186,70.82a1.75,1.75,0,0,1-2-1.53,1.83,1.83,0,0,1,1.65-2A1.74,1.74,0,0,1,187.61,68.87Z" style="fill:#263238"></path><path d="M188.37,63.89c-.21.25-1.65-.69-3.62-.57s-3.34,1.19-3.57,1,.1-.55.7-1a5,5,0,0,1,2.84-1.07,4.78,4.78,0,0,1,2.9.75C188.25,63.35,188.48,63.77,188.37,63.89Z" style="fill:#263238"></path><path d="M170.19,70A1.84,1.84,0,0,1,168.54,72a1.75,1.75,0,0,1-2-1.54,1.84,1.84,0,0,1,1.65-2A1.76,1.76,0,0,1,170.19,70Z" style="fill:#263238"></path><path d="M169.09,65.42c-.21.25-1.66-.69-3.62-.57s-3.35,1.19-3.58,1,.1-.55.7-1a5,5,0,0,1,2.84-1.07,4.78,4.78,0,0,1,2.9.75C169,64.89,169.19,65.3,169.09,65.42Z" style="fill:#263238"></path><path d="M177.1,79.56a12.24,12.24,0,0,1,3.15-.77c.5-.09,1-.21,1-.56a2.52,2.52,0,0,0-.42-1.47c-.55-1.18-1.12-2.43-1.72-3.73-2.38-5.31-4.14-9.69-3.93-9.79s2.32,4.14,4.71,9.45l1.66,3.76a2.94,2.94,0,0,1,.37,2,1.25,1.25,0,0,1-.78.79,3.68,3.68,0,0,1-.84.17A13.31,13.31,0,0,1,177.1,79.56Z" style="fill:#263238"></path><path d="M171.4,81.26c.31,0,.45,2.1,2.36,3.5s4.18,1,4.21,1.33c0,.13-.48.44-1.44.53a5.29,5.29,0,0,1-3.5-1,4.61,4.61,0,0,1-1.85-2.94C171,81.8,171.25,81.26,171.4,81.26Z" style="fill:#263238"></path><path d="M169.13,57.69c-.16.54-2.14.41-4.43.83s-4.11,1.15-4.44.69c-.15-.22.14-.74.86-1.3a7.38,7.38,0,0,1,3.25-1.36,7.29,7.29,0,0,1,3.51.2C168.75,57,169.2,57.43,169.13,57.69Z" style="fill:#263238"></path><path d="M187.31,58.24c-.32.47-1.7.09-3.33.17s-3,.48-3.33,0c-.15-.22,0-.68.61-1.14a4.64,4.64,0,0,1,2.66-.89,4.57,4.57,0,0,1,2.71.74C187.23,57.57,187.45,58,187.31,58.24Z" style="fill:#263238"></path><path d="M189.16,51.68s-3.85-7.8-7.82-9.44c-4.81-2-6.52,3.27-11,2.29s-9.13-2.87-13.47.84c-4.75,4.07-2.26,6.58-2.23,12.27.14,23.07-3.66,29.82-5.51,19.06-.2-1.18-3.55-1.92-4.34-6.9-1-6.47-1.76-14.35-.58-19,1-4,3-6.78,6.84-10,6-5.06,14.61-5.68,20.5-5.44S189.09,41.62,189.16,51.68Z" style="fill:#263238"></path><path d="M149.88,76.31a3.47,3.47,0,0,0-3.95-3.12c-2.37.37-4.94,1.88-4.48,6.8.8,8.72,9.39,6.11,9.39,5.86S150.25,80,149.88,76.31Z" style="fill:#ae7461"></path><path d="M148.63,82.75s-.14.12-.38.26a1.57,1.57,0,0,1-1.14.13c-1-.26-1.86-1.65-2.05-3.22a5,5,0,0,1,.23-2.21,1.73,1.73,0,0,1,1-1.27.78.78,0,0,1,.94.33c.14.23.1.41.14.42s.18-.16.07-.51a1,1,0,0,0-.39-.52,1.13,1.13,0,0,0-.86-.14,2.12,2.12,0,0,0-1.46,1.5,5.17,5.17,0,0,0-.31,2.48c.22,1.75,1.28,3.31,2.57,3.56a1.65,1.65,0,0,0,1.37-.36C148.64,83,148.67,82.76,148.63,82.75Z" style="fill:#6f4439"></path><path d="M191,42.21c-1.35-1-3.19-1.14-4.53-2.16-2.43-1.85-2.55-6.09-5.4-7.18-1.69-.66-3.59.16-5.4,0-2.91-.29-4-2.49-8.48-2.49-5.76,0-7.59,4.29-7.59,4.29a6.65,6.65,0,0,0-6.63.65c-2.6,1.77-2.76,5.3-2.76,5.3s-.91-.46-3.67,1.73c-1.75,1.39-3.18,4.39-3.81,6.54-.94,3.2.45,6.58,1.83,9.62.74,1.65,1.66,3.46,3.37,4,2.09.7,4.38-.94,5.19-3s2.09-4.11,3.08-6.08c1.71-3.42,3.46-6.61,2-8.79a9.87,9.87,0,0,1,6.15,0c2,.65,3.75,1.93,5.75,2.63s4.51.65,5.86-1a4.28,4.28,0,0,0,6.56,1.4c1.57,2.58,5.27,3.76,7.84,2.19S193.4,44,191,42.21Z" style="fill:#263238"></path><path d="M143.67,56.43a11,11,0,0,1,1,2,4.3,4.3,0,0,0,1.45,1.77,3.83,3.83,0,0,0,2.71.3,6.5,6.5,0,0,0,2.61-1.11,10,10,0,0,0,1.7-1.65A13.64,13.64,0,0,1,154.61,56,7.67,7.67,0,0,1,153.44,58a9.31,9.31,0,0,1-1.7,1.8A6.68,6.68,0,0,1,148.93,61a4.11,4.11,0,0,1-3.06-.41,4.34,4.34,0,0,1-1.52-2A8.5,8.5,0,0,1,143.67,56.43Z" style="fill:#455a64"></path><path d="M144,63.17a7.54,7.54,0,0,0,1.73,1,5,5,0,0,0,2.09.18,6.11,6.11,0,0,0,2.4-.92,12.2,12.2,0,0,0,3.28-3.48,9.24,9.24,0,0,1,1.18-1.65,6.9,6.9,0,0,1-.87,1.85,10.64,10.64,0,0,1-3.31,3.71,5.94,5.94,0,0,1-2.62,1,4.88,4.88,0,0,1-2.27-.3C144.38,64,144,63.18,144,63.17Z" style="fill:#455a64"></path><path d="M144.35,68.18a7.4,7.4,0,0,0,1.71.71,5.31,5.31,0,0,0,4.18-1,12.24,12.24,0,0,0,3-3.3,7.47,7.47,0,0,1,1.13-1.54,7,7,0,0,1-.82,1.74,10.57,10.57,0,0,1-3.05,3.53,6.05,6.05,0,0,1-2.42,1,4.78,4.78,0,0,1-2.14-.13C144.77,68.88,144.3,68.21,144.35,68.18Z" style="fill:#455a64"></path><path d="M186.57,436.5l-7.19,24.42s24.33,14.94,23.47,19.58l-51.51-11.16,9.53-38.47Z" style="fill:#F65052"></path><path d="M164,455.4a2.1,2.1,0,0,0-2,1.91,2,2,0,0,0,2,1.87c1.06,0,2.24-1.05,2.13-2a2.12,2.12,0,0,0-2.34-1.73" style="fill:#e0e0e0"></path><g style="opacity:0.6000000000000001"><path d="M151.34,469.34l1.13-3.85,49,12.14s2.06,1.42,1.42,2.87Z" style="fill:#fff"></path></g><path d="M180.28,460.86c-.07.23-1.35.06-2.78.55s-2.34,1.32-2.54,1.18.5-1.41,2.24-2S180.39,460.66,180.28,460.86Z" style="fill:#263238"></path><path d="M185.16,464.1c0,.24-1.19.4-2.3,1.21S181.25,467.1,181,467s-.08-1.41,1.32-2.39S185.21,463.88,185.16,464.1Z" style="fill:#263238"></path><path d="M186.7,470.77c-.24,0-.29-1.24.68-2.38s2.27-1.39,2.33-1.18-.84.75-1.63,1.69S187,470.8,186.7,470.77Z" style="fill:#263238"></path><path d="M181.25,455.13c-.16.19-1.23-.38-2.67-.6s-2.66,0-2.74-.27,1.19-.83,2.89-.56S181.42,455,181.25,455.13Z" style="fill:#263238"></path><path d="M168.66,443l-.8,25.3s27.44,9.21,27.78,13.9l-52.91.39-.49-39.45Z" style="fill:#F65052"></path><path d="M151.48,466.29a2,2,0,0,0-1.48,2.3,2.07,2.07,0,0,0,4-1.07,2.22,2.22,0,0,0-2.71-1.17" style="fill:#e0e0e0"></path><g style="opacity:0.6000000000000001"><path d="M142.73,482.59l.12-4,50.68,1.11s2.36.93,2.11,2.48Z" style="fill:#fff"></path></g><path d="M168.71,468c0,.24-1.29.36-2.56,1.14s-1.94,1.79-2.17,1.7.13-1.48,1.68-2.4S168.77,467.82,168.71,468Z" style="fill:#263238"></path><path d="M174.28,470.13c.06.23-1.06.65-1.93,1.67s-1.11,2.09-1.37,2.08-.43-1.36.68-2.61S174.27,469.9,174.28,470.13Z" style="fill:#263238"></path><path d="M177.47,476.27c-.23.05-.6-1.14.06-2.46s1.85-1.85,2-1.65-.63.9-1.15,2S177.73,476.24,177.47,476.27Z" style="fill:#263238"></path><path d="M168.21,462.26c-.11.22-1.3-.1-2.76,0s-2.59.54-2.73.33,1-1.06,2.68-1.16S168.33,462.07,168.21,462.26Z" style="fill:#263238"></path><path d="M167.78,461.06a10.59,10.59,0,0,0-.12,2c0,1.26,0,3.07-.06,5.26v.16l.17.06c2.73,1,6.07,2.17,9.62,3.55,4.63,1.78,8.72,3.59,11.63,5l3.44,1.69a7,7,0,0,0,1.28.59,5.59,5.59,0,0,0-1.16-.78c-.77-.47-1.91-1.11-3.35-1.86a122,122,0,0,0-11.6-5.16c-3.56-1.38-6.92-2.54-9.68-3.46l.16.22c-.05-2.18-.1-4-.16-5.25A10.32,10.32,0,0,0,167.78,461.06Z" style="fill:#263238"></path><path d="M133.12,257.48l.25,16.35,7,77.77s-3,37.82-4.91,59.18c-1.64,18.54,2,50.74,2,50.74l33.67-.49,10.4-107.72L188,286.13l12.54-30.71Z" style="fill:#263238"></path><polygon points="210.75 250.88 215.98 346.12 184.19 446.57 182.7 451.49 162.51 447.27 174.52 254.6 210.75 250.88" style="fill:#263238"></polygon><path d="M187.88,286.94a2.19,2.19,0,0,1,0,.45c0,.33,0,.76,0,1.32,0,1.2,0,2.91-.09,5.1-.07,4.42-.31,10.82-.67,18.73-.78,15.8-2.34,37.63-4.93,61.65s-5.42,45.74-7.53,61.44c-1.07,7.83-1.94,14.17-2.54,18.59-.31,2.17-.56,3.86-.73,5-.08.55-.15,1-.2,1.31a2.71,2.71,0,0,1-.09.45,2.52,2.52,0,0,1,0-.45c0-.33.08-.77.14-1.32.14-1.19.34-2.89.6-5.07.56-4.42,1.36-10.77,2.35-18.61,2-15.71,4.81-37.41,7.35-61.44s4.22-45.83,5.1-61.62c.42-7.9.74-14.3.88-18.72.09-2.18.16-3.89.21-5.09,0-.56,0-1,.07-1.32A3.09,3.09,0,0,1,187.88,286.94Z" style="fill:#455a64"></path><polygon points="200.69 176.56 209.76 194.76 209.76 194.76 212.65 211.91 200.5 208.8 200.69 176.56" style="fill:#F65052"></polygon><g style="opacity:0.30000000000000004"><polygon points="200.69 176.56 209.76 194.76 209.76 194.76 212.65 211.91 200.5 208.8 200.69 176.56"></polygon></g><path d="M185.83,280.58s0,.11.12.23a.75.75,0,0,0,.77,0,1.27,1.27,0,0,0,.54-1c.07-.43.13-.88.2-1.36.28-2,.63-4.82,1-7.91s.61-5.9.78-7.93a16.6,16.6,0,0,0,.14-3.31,18.45,18.45,0,0,0-.58,3.27c-.28,2-.62,4.81-1,7.91s-.62,5.89-.79,7.93c-.12,1,0,1.92-.43,2.21a.64.64,0,0,1-.57.07C185.89,280.65,185.85,280.57,185.83,280.58Z" style="fill:#455a64"></path><path d="M182,260.84s-.18-.09-.52,0a2,2,0,0,0-1.19.69,1.86,1.86,0,0,0-.37,1.95,2.43,2.43,0,0,0,2.13,1.39,2.31,2.31,0,0,0,2.16-1.36,1.85,1.85,0,0,0-.22-2,1.76,1.76,0,0,0-1.22-.67c-.35,0-.52.08-.51.11a2,2,0,0,1,1.37.79,1.49,1.49,0,0,1,.05,1.52,1.77,1.77,0,0,1-1.61,1,1.9,1.9,0,0,1-1.61-1,1.46,1.46,0,0,1,.18-1.5A2.85,2.85,0,0,1,182,260.84Z" style="fill:#455a64"></path><path d="M202.72,262.52c.16,0,.64-1,.85-2.28s.08-2.41-.09-2.41-.32,1.05-.53,2.33S202.55,262.47,202.72,262.52Z" style="fill:#455a64"></path><path d="M199,262.56c.17,0,.52-1.05.79-2.41s.35-2.49.18-2.51-.52,1.05-.79,2.41A5.22,5.22,0,0,0,199,262.56Z" style="fill:#455a64"></path><path d="M161.67,263c.16,0,.47-.7.68-1.62s.24-1.71.08-1.74-.48.69-.69,1.62S161.5,262.92,161.67,263Z" style="fill:#455a64"></path><path d="M158,264.18a6.4,6.4,0,0,0,1-3.11c.26-1.79.09-3.25-.08-3.24s-.28,1.43-.54,3.17S157.84,264.14,158,264.18Z" style="fill:#455a64"></path><path d="M132.83,276a3.09,3.09,0,0,0,1,.36,10,10,0,0,0,3,.25,13.78,13.78,0,0,0,8.67-4,18.35,18.35,0,0,0,4.54-8,22.88,22.88,0,0,0,.61-2.68,3.35,3.35,0,0,0,.08-1c-.11,0-.38,1.39-1.11,3.57a19.78,19.78,0,0,1-4.57,7.7,14.08,14.08,0,0,1-8.26,3.94A17.76,17.76,0,0,1,132.83,276Z" style="fill:#455a64"></path><polygon points="182.5 119.03 190.81 128.62 202.02 168.69 204.88 214.98 218.28 283.4 211.38 285.52 205.44 250.35 182.16 131.32 182.5 119.03" style="fill:#F65052"></polygon><path d="M148.86,103.18l-4.51,8.09L119.4,134.18h0c-5.74,11-5.09,18.8-1.08,30.58l18.37,59.62-7.57,63.5,71.26-.93s8.26-26.17,4.05-49.94C200.8,216.51,192,168.66,192,168.66A257,257,0,0,0,148.86,103.18Z" style="fill:#F65052"></path><path d="M149.29,103.66l.65-4.65,27.67,22.71,5.1-7.28.31,10.19,1.15,6.17S194,160.72,195.35,167s5.34,47.4,5.34,47.4l-23.53-65Z" style="fill:#e0e0e0"></path><path d="M176.63,122.34c.05,0-.45.84-1,2.39a16.91,16.91,0,0,0-1.11,6.75l0,.74-.45-.6c-2.14-2.89-4.84-6.36-7.93-10-4-4.69-7.91-8.68-10.8-11.5l-3.46-3.31a9.7,9.7,0,0,1-1.24-1.25,10.86,10.86,0,0,1,1.39,1.09c.86.73,2.09,1.81,3.58,3.18a141.76,141.76,0,0,1,10.95,11.43c3.1,3.61,5.79,7.12,7.88,10l-.41.15a16.24,16.24,0,0,1,1.33-6.87,13.11,13.11,0,0,1,.89-1.73A2.55,2.55,0,0,1,176.63,122.34Z" style="fill:#263238"></path><path d="M181.43,130.8a14.83,14.83,0,0,1-1.54-3.65,14.52,14.52,0,0,1-1-3.83,14,14,0,0,1,1.55,3.65A14.16,14.16,0,0,1,181.43,130.8Z" style="fill:#263238"></path><path d="M200.69,214.41a5.46,5.46,0,0,1-.29-.91c-.19-.66-.43-1.54-.75-2.66-.63-2.35-1.52-5.68-2.62-9.77-2.18-8.31-5.16-19.72-8.46-32.31s-6.17-24-8.3-32.35c-1-4.11-1.87-7.46-2.46-9.83l-.64-2.67a5.45,5.45,0,0,1-.18-1s.11.31.29.92l.74,2.65c.63,2.36,1.53,5.68,2.63,9.77,2.17,8.32,5.16,19.72,8.46,32.32s6.16,24,8.3,32.35c1,4.11,1.86,7.45,2.45,9.82.27,1.13.49,2,.64,2.68A6.47,6.47,0,0,1,200.69,214.41Z" style="fill:#263238"></path><path d="M198.66,208.8a1.64,1.64,0,0,1-.18-.23l-.49-.7-1.83-2.73c-1.6-2.42-3.88-5.87-6.69-10.14l-22.1-33.85-.07-.11,0-.13c.34-1,.71-2.09,1.08-3.17l2-5.8.42.32-5.68,3.83-.28.19-.13-.32c-5-12.6-10-23.33-13.8-30.88-1.89-3.78-3.46-6.78-4.54-8.84l-1.23-2.36-.31-.62-.1-.21s.06.06.14.19l.35.59,1.32,2.32c1.13,2,2.75,5,4.68,8.77,3.88,7.52,9,18.23,14,30.84l-.4-.13,5.66-3.83.69-.47-.27.79c-.65,1.9-1.3,3.84-2,5.8-.37,1.08-.74,2.16-1.08,3.17l0-.24,21.95,34L196.33,205l1.75,2.79.44.73C198.62,208.7,198.67,208.79,198.66,208.8Z" style="fill:#263238"></path><path d="M183.89,245.52a5.52,5.52,0,0,1-.12.61c-.11.46-.26,1.07-.44,1.84-.41,1.69-1,4.07-1.71,7.05l0,.12h-.13c-7.92.5-20.37,1.23-34.33,2l-.85,0-.45,0,.17-.41,3.43-8.27.31.37c-.1-1.08,0-.3-.06-.54h.44l.45,0,.91-.08,1.79-.16,3.49-.31,6.52-.57,10.84-.94,7.18-.57,1.92-.13a4.21,4.21,0,0,1,.67,0,2.66,2.66,0,0,1-.66.11l-1.92.22-7.15.74-10.84,1.06-6.51.61-3.49.33-1.79.16-.91.09-.46,0-.23,0h-.22c0-.24,0,.54-.08-.53l.31.37c-1.1,2.65-2.25,5.42-3.42,8.27l-.28-.38.86-.05c14-.77,26.41-1.42,34.34-1.79l-.16.13c.8-2.91,1.44-5.23,1.89-6.88.21-.77.39-1.39.52-1.86S183.88,245.53,183.89,245.52Z" style="fill:#263238"></path><path d="M200.27,211.2a10.89,10.89,0,0,1,.46,1.76c.26,1.14.61,2.81,1,4.86.79,4.12,1.75,9.84,2.56,16.19s1.29,12.13,1.54,16.31c.12,2.09.2,3.79.23,5a11.11,11.11,0,0,1,0,1.82,12.74,12.74,0,0,1-.21-1.81c-.1-1.26-.24-2.92-.41-4.94-.35-4.17-.9-9.93-1.7-16.27S202,222,201.35,217.89c-.34-2-.62-3.64-.83-4.89A12.14,12.14,0,0,1,200.27,211.2Z" style="fill:#263238"></path><g style="opacity:0.30000000000000004"><polygon points="149.29 257.01 147.92 259.6 181.43 258.31 183.33 247.97 181.44 254.8 149.29 257.01"></polygon></g><g style="opacity:0.30000000000000004"><polygon points="153.1 128.58 163.28 160.92 167.38 156.71 165.75 164.14 185.62 189.44 167.84 160.85 170.4 151.94 165.24 155.76 153.1 128.58"></polygon></g><g style="opacity:0.30000000000000004"><path d="M123.53,170.92c5,11.71,13.27,30.56,19.92,41.93,2.07,3.54,4.2,7.69,7.4,10.24,4.57,3.63,9.36,5,15.17,5.52A158.08,158.08,0,0,0,207,227.45v-1.54s-51.77-12-52.86-12.62S123.53,170.92,123.53,170.92Z"></path></g><path d="M117.12,158l25.23,49.29c4.32,8.42,15.61,17.33,22.51,17.33L215.23,226l.17-25-42.89-4.2-24.19-48.86s-6.19-22.39-21.07-17.3S117.12,158,117.12,158Z" style="fill:#F65052"></path><path d="M148.32,147.88s.17.29.46.87l1.31,2.57,4.92,9.81,17.69,35.52-.17-.12,42.89,4.16.23,0v.23c-.05,8.06-.1,16.43-.16,25v.26h-.27L208,226l-44.58-1.29h-.06a34.09,34.09,0,0,1-20.44-15.9c-1.32-2.41-2.47-4.8-3.66-7.09l-12.25-24-8-15.73c-.91-1.82-1.62-3.22-2.1-4.19l-.54-1.09c-.11-.24-.16-.37-.16-.37s.07.11.2.35l.57,1.07,2.17,4.16c1.9,3.66,4.64,9,8.1,15.66l12.34,24c1.2,2.28,2.37,4.69,3.68,7.06a33.7,33.7,0,0,0,20.19,15.65h-.06L208,225.5l7.22.2L215,226c.06-8.59.12-17,.17-25l.23.26L172.49,197h-.12l-.05-.1-17.52-35.6c-2.08-4.25-3.71-7.58-4.82-9.87-.55-1.12-1-2-1.25-2.59S148.32,147.88,148.32,147.88Z" style="fill:#263238"></path><path d="M146,140.19a37.51,37.51,0,0,0-3-3.18,18.56,18.56,0,0,0-19.69-3.18,36.07,36.07,0,0,0-3.87,2.06,4.78,4.78,0,0,1,.9-.77,17.14,17.14,0,0,1,2.82-1.63,18.18,18.18,0,0,1,20.09,3.25,16.89,16.89,0,0,1,2.16,2.43A4.83,4.83,0,0,1,146,140.19Z" style="fill:#263238"></path></g><g id="freepik--Floor--inject-2"><path d="M449.69,482.59c0,.14-89.41.26-199.68.26s-199.7-.12-199.7-.26,89.39-.26,199.7-.26S449.69,482.45,449.69,482.59Z" style="fill:#263238"></path></g></svg>